<svg xmlns="http://www.w3.org/2000/svg" viewBox="0 0 32 32" fill="none">
  <!-- Background -->
  <rect width="32" height="32" rx="6" fill="#0f172a"/>
  
  <!-- Border accent -->
  <rect x="1" y="1" width="30" height="30" rx="5" fill="none" stroke="#f59e0b" stroke-width="0.5" opacity="0.3"/>
  
  <!-- DT Monogram - Clean and Bold -->
  <g fill="#f59e0b">
    <!-- D -->
    <path d="M 7 10 L 7 22 L 11 22 Q 15 22 15 18 L 15 14 Q 15 10 11 10 L 7 10 Z M 9.5 12.5 L 11 12.5 Q 12.5 12.5 12.5 14 L 12.5 18 Q 12.5 19.5 11 19.5 L 9.5 19.5 L 9.5 12.5 Z"/>
    
    <!-- T -->
    <path d="M 17 10 L 17 12.5 L 19.5 12.5 L 19.5 22 L 22 22 L 22 12.5 L 24.5 12.5 L 24.5 10 L 17 10 Z"/>
  </g>
  
  <!-- Small decorative underline -->
  <rect x="10" y="24" width="12" height="0.5" fill="#f59e0b" opacity="0.5"/>
</svg>